# xmcd
#
# Track frame offsets:
#	150
#	14374
#	17415
#	29043
#	30670
#	43972
#	47405
#	52897
#	62619
#	67085
#	70471
#	84260
#	90316
#	104505
#	107920
#	123486
#	137207
#	142541
#	155310
#
# Disc length: 2225 seconds
#
# Revision: 0
# Processed by: cddbd v1.5.2PL0 Copyright (c) Steve Scherf et al.
# Submitted via: audiograbber 1.83.01
#
DISCID=fb08af13
DTITLE=Johnny Cash - Strawberry Cake
DYEAR=1900
DGENRE=
TTITLE0=Big River
TTITLE1=Dialogue
TTITLE2=Doin' My Time
TTITLE3=Dialogue
TTITLE4=I Still Miss Someone
TTITLE5=Dialogue
TTITLE6=Another Man Done Gone
TTITLE7=I Got Stripes
TTITLE8=Dialogue
TTITLE9=Church In The Wildwood
TTITLE10=Wildwood/Lonesome Valley
TTITLE11=Dialogue
TTITLE12=Strawberry Cake.
TTITLE13=Dialogue
TTITLE14=Rock Island Line
TTITLE15=Navajo
TTITLE16=Dialogue
TTITLE17=Destination Victoria Station
TTITLE18=The Fourth Man
EXTD=
EXTT0=
EXTT1=
EXTT2=
EXTT3=
EXTT4=
EXTT5=
EXTT6=
EXTT7=
EXTT8=
EXTT9=
EXTT10=
EXTT11=
EXTT12=
EXTT13=
EXTT14=
EXTT15=
EXTT16=
EXTT17=
EXTT18=
PLAYORDER=
